<?xml version="1.0" encoding="utf-8"?>
<!-- Generator: Adobe Illustrator 23.0.3, SVG Export Plug-In . SVG Version: 6.00 Build 0)  -->
<svg version="1.1" id="Layer_1" xmlns="http://www.w3.org/2000/svg" xmlns:xlink="http://www.w3.org/1999/xlink" x="0px" y="0px"
	 viewBox="0 0 215.6 52.3" style="enable-background:new 0 0 215.6 51.3;" xml:space="preserve">
<style type="text/css">
	.st0{fill:#DFEDF5;}
</style>
<g>
	<path class="st0" d="M71.3,17.1c1.4,0.8,2.4,1.8,3.2,3.2c0.8,1.4,1.1,2.9,1.1,4.7c0,1.7-0.4,3.3-1.1,4.7c-0.8,1.4-1.8,2.4-3.2,3.2
		s-2.9,1.2-4.6,1.2h-4.2c-0.3,0-0.6-0.1-0.9-0.3c-0.2-0.2-0.3-0.5-0.3-0.9V17.3c0-0.4,0.1-0.6,0.3-0.9c0.2-0.2,0.5-0.3,0.9-0.3h4.2
		C68.4,15.9,70,16.3,71.3,17.1z M70.1,30.9c1-0.6,1.8-1.4,2.4-2.5c0.6-1.1,0.8-2.2,0.8-3.6c0-1.3-0.3-2.5-0.8-3.6
		c-0.6-1-1.3-1.9-2.4-2.4c-1-0.6-2.2-0.9-3.4-0.9h-3v13.8h3C68,31.8,69.1,31.5,70.1,30.9z"/>
	<path class="st0" d="M90.2,28.2c-0.2,0.2-0.5,0.3-0.8,0.3h-8.8c0.2,1.1,0.7,1.9,1.5,2.6c0.8,0.7,1.8,1,3,1c0.5,0,0.9-0.1,1.4-0.3
		s0.9-0.4,1.2-0.6c0.2-0.2,0.5-0.3,0.8-0.3s0.5,0.1,0.7,0.2c0.3,0.2,0.4,0.5,0.4,0.8s-0.1,0.5-0.4,0.7c-0.5,0.4-1.2,0.8-2,1
		S85.7,34,85,34c-1.3,0-2.4-0.3-3.4-0.8s-1.8-1.3-2.3-2.3c-0.6-1-0.8-2.1-0.8-3.3s0.3-2.3,0.8-3.3s1.3-1.7,2.2-2.3
		c0.9-0.5,2-0.8,3.2-0.8s2.2,0.3,3.1,0.8c0.9,0.5,1.5,1.3,2,2.2c0.5,0.9,0.7,2,0.7,3.2C90.5,27.7,90.4,28,90.2,28.2z M82,24.1
		c-0.7,0.6-1.1,1.4-1.3,2.5h7.7c-0.1-1-0.5-1.9-1.2-2.5c-0.6-0.6-1.5-0.9-2.5-0.9C83.6,23.2,82.7,23.5,82,24.1z"/>
	<path class="st0" d="M103.2,23.3c0.2,0.2,0.2,0.4,0.2,0.6c0,0.3-0.2,0.6-0.5,0.9c-0.2,0.1-0.3,0.2-0.5,0.2c-0.4,0-0.7-0.1-0.9-0.4
		c-0.4-0.4-0.8-0.7-1.3-0.9c-0.5-0.2-1-0.3-1.6-0.3c-1.2,0-2.2,0.4-2.9,1.2c-0.7,0.8-1.1,1.8-1.1,3.2c0,0.8,0.2,1.6,0.5,2.2
		c0.3,0.7,0.8,1.2,1.5,1.5c0.6,0.4,1.3,0.6,2.1,0.6c1,0,1.9-0.3,2.5-0.8c0.3-0.2,0.6-0.3,0.9-0.3c0.2,0,0.4,0.1,0.6,0.2
		c0.3,0.2,0.4,0.5,0.4,0.8c0,0.2-0.1,0.4-0.3,0.6c-1.1,1-2.5,1.5-4.2,1.5c-1.2,0-2.3-0.3-3.3-0.8c-1-0.6-1.7-1.3-2.3-2.3
		c-0.5-1-0.8-2.1-0.8-3.3s0.3-2.3,0.8-3.3s1.3-1.7,2.2-2.3c1-0.5,2-0.8,3.2-0.8C100.5,21.2,102,21.9,103.2,23.3z"/>
	<path class="st0" d="M118,28.2c-0.2,0.2-0.5,0.3-0.8,0.3h-8.8c0.2,1.1,0.7,1.9,1.5,2.6c0.8,0.7,1.8,1,3,1c0.5,0,0.9-0.1,1.4-0.3
		s0.9-0.4,1.2-0.6c0.2-0.2,0.5-0.3,0.8-0.3s0.5,0.1,0.7,0.2c0.3,0.2,0.4,0.5,0.4,0.8s-0.1,0.5-0.4,0.7c-0.5,0.4-1.2,0.8-2,1
		c-0.8,0.3-1.5,0.4-2.2,0.4c-1.3,0-2.4-0.3-3.4-0.8s-1.8-1.3-2.3-2.3c-0.6-1-0.8-2.1-0.8-3.3s0.3-2.3,0.8-3.3s1.3-1.7,2.2-2.3
		c0.9-0.5,2-0.8,3.2-0.8s2.2,0.3,3.1,0.8c0.9,0.5,1.5,1.3,2,2.2c0.5,0.9,0.7,2,0.7,3.2C118.3,27.7,118.2,28,118,28.2z M109.8,24.1
		c-0.7,0.6-1.1,1.4-1.3,2.5h7.7c-0.1-1-0.5-1.9-1.2-2.5c-0.6-0.6-1.5-0.9-2.5-0.9C111.4,23.2,110.5,23.5,109.8,24.1z"/>
	<path class="st0" d="M130.4,21.9c0.8,0.5,1.5,1.1,2,2s0.7,2,0.7,3.2v5.7c0,0.3-0.1,0.6-0.3,0.8c-0.2,0.2-0.5,0.3-0.8,0.3
		s-0.6-0.1-0.8-0.3c-0.2-0.2-0.3-0.5-0.3-0.8v-5.7c0-1.2-0.3-2.2-1-2.8c-0.7-0.6-1.6-1-2.7-1c-0.6,0-1.2,0.1-1.8,0.4
		c-0.5,0.3-0.9,0.6-1.2,1.1c-0.3,0.4-0.5,0.9-0.5,1.5v6.5c0,0.3-0.1,0.6-0.3,0.8c-0.2,0.2-0.5,0.3-0.9,0.3c-0.3,0-0.6-0.1-0.8-0.3
		c-0.2-0.2-0.3-0.5-0.3-0.8V22.5c0-0.4,0.1-0.6,0.3-0.9c0.2-0.2,0.5-0.3,0.8-0.3c0.4,0,0.6,0.1,0.9,0.3c0.2,0.2,0.3,0.5,0.3,0.9v0.3
		c0.5-0.5,1.1-0.9,1.8-1.1c0.7-0.3,1.4-0.4,2.2-0.4C128.6,21.2,129.6,21.4,130.4,21.9z"/>
	<path class="st0" d="M143.1,32c0.2,0.2,0.3,0.5,0.3,0.8s-0.1,0.6-0.4,0.8s-0.6,0.3-1,0.3h-0.4c-0.8,0-1.4-0.2-2.1-0.6
		c-0.6-0.4-1.1-0.9-1.5-1.6c-0.4-0.7-0.5-1.4-0.5-2.3v-5.7h-1c-0.3,0-0.6-0.1-0.8-0.3c-0.2-0.2-0.3-0.4-0.3-0.7
		c0-0.3,0.1-0.6,0.3-0.7c0.2-0.2,0.5-0.3,0.8-0.3h1.1v-3.3c0-0.3,0.1-0.6,0.3-0.8c0.2-0.2,0.5-0.3,0.8-0.3s0.6,0.1,0.8,0.3
		c0.2,0.2,0.3,0.5,0.3,0.8v3.3h2c0.3,0,0.6,0.1,0.8,0.3c0.2,0.2,0.3,0.4,0.3,0.7c0,0.3-0.1,0.5-0.3,0.7c-0.2,0.2-0.5,0.3-0.8,0.3h-2
		v5.7c0,0.6,0.2,1.1,0.5,1.5s0.8,0.6,1.2,0.6h0.8C142.7,31.6,143,31.7,143.1,32z"/>
	<path class="st0" d="M157.4,28.2c-0.2,0.2-0.5,0.3-0.8,0.3h-8.8c0.2,1.1,0.7,1.9,1.5,2.6c0.8,0.7,1.8,1,3,1c0.5,0,0.9-0.1,1.4-0.3
		s0.9-0.4,1.2-0.6c0.2-0.2,0.5-0.3,0.8-0.3s0.5,0.1,0.7,0.2c0.3,0.2,0.4,0.5,0.4,0.8s-0.1,0.5-0.4,0.7c-0.5,0.4-1.2,0.8-2,1
		c-0.8,0.3-1.5,0.4-2.2,0.4c-1.3,0-2.4-0.3-3.4-0.8s-1.8-1.3-2.3-2.3c-0.6-1-0.8-2.1-0.8-3.3s0.3-2.3,0.8-3.3s1.3-1.7,2.2-2.3
		c0.9-0.5,2-0.8,3.2-0.8s2.2,0.3,3.1,0.8s1.5,1.3,2,2.2c0.5,0.9,0.7,2,0.7,3.2C157.7,27.7,157.6,28,157.4,28.2z M149.2,24.1
		c-0.7,0.6-1.1,1.4-1.3,2.5h7.7c-0.1-1-0.5-1.9-1.2-2.5s-1.5-0.9-2.5-0.9C150.8,23.2,149.9,23.5,149.2,24.1z"/>
	<path class="st0" d="M168.8,21.5c0.5,0.2,0.7,0.6,0.7,0.9c0,0.1,0,0.2,0,0.2c-0.1,0.5-0.4,0.7-0.9,0.7c-0.1,0-0.2,0-0.3,0
		c-0.6-0.1-1.1-0.2-1.5-0.2c-1.1,0-2,0.3-2.7,0.8s-1,1.2-1,2.1v6.7c0,0.4-0.1,0.7-0.3,0.9c-0.2,0.2-0.5,0.3-0.9,0.3
		s-0.7-0.1-0.9-0.3c-0.2-0.2-0.3-0.5-0.3-0.9V22.4c0-0.4,0.1-0.7,0.3-0.9c0.2-0.2,0.5-0.3,0.9-0.3c0.8,0,1.2,0.4,1.2,1.2v0.4
		c0.5-0.5,1-1,1.7-1.3s1.4-0.5,2.2-0.5C167.7,21.2,168.3,21.3,168.8,21.5z"/>
	<path class="st0" d="M185.7,32.8c0,0.3-0.1,0.6-0.3,0.8c-0.2,0.2-0.5,0.3-0.9,0.3c-0.2,0-0.5-0.1-0.7-0.2c-0.2-0.1-0.4-0.3-0.5-0.5
		L182,30h-8.3l-1.3,3.2c-0.1,0.2-0.3,0.4-0.5,0.5s-0.4,0.2-0.6,0.2c-0.3,0-0.6-0.1-0.8-0.4s-0.3-0.5-0.3-0.8c0-0.2,0-0.3,0.1-0.5
		l6.5-15.5c0.2-0.5,0.6-0.8,1.1-0.8c0.6,0,0.9,0.3,1.1,0.8l6.5,15.6C185.7,32.5,185.7,32.6,185.7,32.8z M181.3,28l-3.3-8.2l-3.4,8.2
		H181.3z"/>
	<path class="st0" d="M199.5,16.2c0.2,0.2,0.3,0.5,0.3,0.9v10.5c0,1.2-0.3,2.3-0.8,3.3c-0.6,1-1.3,1.7-2.3,2.3s-2,0.8-3.2,0.8
		s-2.3-0.3-3.2-0.8c-1-0.6-1.7-1.3-2.3-2.3c-0.6-1-0.8-2.1-0.8-3.3s0.3-2.3,0.8-3.3s1.2-1.7,2.1-2.3c0.9-0.6,1.9-0.8,3-0.8
		c0.9,0,1.7,0.2,2.5,0.6s1.4,0.9,2,1.5v-6.2c0-0.4,0.1-0.6,0.3-0.9c0.2-0.2,0.5-0.3,0.8-0.3C198.9,15.9,199.2,16,199.5,16.2z
		 M195.5,31.4c0.6-0.4,1.1-0.9,1.5-1.6c0.4-0.7,0.5-1.4,0.5-2.2s-0.2-1.6-0.5-2.2c-0.4-0.7-0.8-1.2-1.5-1.5
		c-0.6-0.4-1.3-0.6-2.1-0.6c-0.8,0-1.5,0.2-2.1,0.6s-1.1,0.9-1.5,1.5c-0.4,0.7-0.5,1.4-0.5,2.2s0.2,1.6,0.5,2.2
		c0.4,0.7,0.9,1.2,1.5,1.6c0.6,0.4,1.3,0.6,2.1,0.6S194.9,31.8,195.5,31.4z"/>
	<path class="st0" d="M211.1,21.7c0.8,0.3,1.4,0.8,1.9,1.3c0.2,0.2,0.3,0.5,0.3,0.7c0,0.3-0.1,0.5-0.4,0.7c-0.2,0.1-0.4,0.2-0.6,0.2
		c-0.4,0-0.8-0.1-1.1-0.4c-0.4-0.4-0.8-0.6-1.2-0.8c-0.4-0.1-1-0.2-1.6-0.2c-0.7,0-1.3,0.1-1.7,0.4c-0.5,0.2-0.7,0.6-0.7,1
		c0,0.3,0.1,0.6,0.2,0.8c0.2,0.2,0.4,0.4,0.9,0.6c0.4,0.2,1.1,0.4,1.9,0.5c1.7,0.3,2.9,0.8,3.6,1.4c0.7,0.6,1.1,1.4,1.1,2.3
		c0,0.7-0.2,1.4-0.6,1.9c-0.4,0.6-1,1-1.7,1.4c-0.7,0.3-1.6,0.5-2.7,0.5c-1,0-2-0.2-3-0.5c-0.9-0.3-1.6-0.7-2.2-1.3
		c-0.2-0.2-0.3-0.4-0.3-0.7c0-0.4,0.2-0.7,0.5-0.9s0.6-0.3,0.8-0.3c0.3,0,0.6,0.1,0.9,0.4c0.3,0.3,0.7,0.6,1.3,0.8
		c0.6,0.2,1.2,0.4,1.9,0.4c0.9,0,1.6-0.1,2-0.4c0.5-0.3,0.7-0.7,0.7-1.2s-0.2-0.9-0.7-1.2s-1.3-0.6-2.4-0.8c-3-0.6-4.4-1.8-4.4-3.7
		c0-0.8,0.2-1.4,0.7-1.9c0.4-0.5,1-0.9,1.8-1.2c0.7-0.3,1.5-0.4,2.3-0.4C209.4,21.2,210.3,21.4,211.1,21.7z"/>
</g>
<path class="st0" d="M26.1,20.3c-0.8-1.4-1.8-2.4-3.2-3.2c-1.4-0.8-2.9-1.2-4.6-1.2h-4.2c-0.3,0-0.6,0.1-0.8,0.3
	c-0.2,0.2-0.3,0.5-0.3,0.9v15.6c0,0.3,0.1,0.6,0.3,0.9c0.2,0.2,0.5,0.3,0.8,0.3h4.2c0.6,0,1.2,0,1.7-0.1l1.2-2.6
	c-0.9,0.4-1.8,0.6-2.9,0.6h-3V18h3c1.3,0,2.4,0.3,3.4,0.9s1.8,1.4,2.3,2.5c0.3,0.6,0.6,1.3,0.7,2.1l1.4-3
	C26.2,20.3,26.2,20.3,26.1,20.3z"/>
<g>
	<path class="st0" d="M25.5,51C11.4,51,0,39.5,0,25.5C0,11.4,11.5,0,25.5,0C39.6,0,51,11.5,51,25.5C51.1,39.6,39.6,51,25.5,51z
		 M25.5,1C12,1,1,12,1,25.5S12,50,25.5,50S50,39,50,25.5S39.1,1,25.5,1z"/>
</g>
<path class="st0" d="M38.6,32.3l-6.5-15.6c-0.2-0.5-0.6-0.8-1.1-0.8s-0.9,0.3-1.1,0.8l-6.5,15.5c-0.1,0.2-0.1,0.4-0.1,0.5
	c0,0.3,0.1,0.6,0.3,0.8s0.5,0.4,0.8,0.4c0.2,0,0.4-0.1,0.6-0.2c0.2-0.1,0.4-0.3,0.5-0.5l1.3-3.2l0.8-2l3.4-8.2l3.3,8.2l0.8,2
	l1.3,3.2c0.1,0.2,0.2,0.4,0.5,0.5c0.2,0.1,0.4,0.2,0.7,0.2s0.6-0.1,0.9-0.3c0.2-0.2,0.3-0.5,0.3-0.8C38.7,32.6,38.7,32.5,38.6,32.3z
	"/>
<circle class="st0" cx="31" cy="28.1" r="1.3"/>
</svg>
